<?xml version="1.0" standalone="no"?>
<!DOCTYPE svg PUBLIC "-//W3C//DTD SVG 20010904//EN"
 "http://www.w3.org/TR/2001/REC-SVG-20010904/DTD/svg10.dtd">
<svg version="1.0" xmlns="http://www.w3.org/2000/svg"
 width="256.000000pt" height="256.000000pt" viewBox="0 0 256.000000 256.000000"
 preserveAspectRatio="xMidYMid meet">
<metadata>
Created by potrace 1.14, written by Peter Selinger 2001-2017
</metadata>
<g transform="translate(0.000000,256.000000) scale(0.100000,-0.100000)"
fill="#000000" stroke="none">
<path d="M885 2154 c-14 -15 -35 -42 -46 -61 -11 -18 -25 -33 -30 -33 -5 0 -8
-3 -7 -7 3 -10 -52 -97 -64 -101 -4 -2 -6 -8 -2 -13 3 -5 0 -9 -5 -9 -6 0 -11
-7 -11 -15 0 -8 -5 -15 -11 -15 -5 0 -8 -4 -5 -9 3 -5 -38 -31 -92 -59 -54
-27 -123 -66 -153 -87 -50 -36 -155 -135 -189 -180 -49 -65 -116 -193 -121
-235 -2 -14 -7 -28 -12 -31 -4 -3 -9 -20 -10 -37 -1 -18 -6 -32 -11 -32 -20 0
32 -44 79 -66 28 -13 45 -24 39 -24 -7 0 -15 -7 -18 -16 -5 -12 -3 -14 7 -8 7
5 4 1 -6 -8 -11 -10 -16 -18 -13 -18 4 0 2 -9 -4 -19 -7 -14 -6 -21 3 -24 9
-4 9 -6 -1 -6 -8 -1 -10 -6 -5 -13 4 -7 9 -21 10 -31 4 -23 32 -77 49 -95 8
-7 14 -20 14 -28 0 -8 4 -13 9 -9 5 3 12 -3 15 -13 7 -21 100 -119 135 -142
13 -8 29 -21 37 -27 7 -7 16 -13 19 -13 4 0 20 -9 36 -21 16 -11 35 -22 42
-23 7 -1 35 -13 62 -26 28 -13 56 -23 63 -22 6 2 12 -1 12 -5 0 -5 8 -9 18
-10 9 0 28 -4 42 -8 14 -4 34 -8 45 -10 11 -1 31 -5 45 -9 14 -4 57 -8 95 -11
39 -2 70 -4 70 -5 0 -5 58 -4 67 1 6 4 23 3 39 -1 15 -5 30 -5 34 -2 10 10
105 11 105 1 0 -5 7 -9 15 -9 8 0 15 -3 15 -8 0 -8 61 -38 73 -34 4 1 7 -2 7
-8 0 -5 6 -10 14 -10 7 0 26 -6 41 -14 15 -8 50 -17 76 -21 27 -4 47 -10 45
-13 -2 -4 23 -8 55 -9 32 -1 59 2 59 5 0 11 -34 106 -40 112 -6 6 -11 28 -13
55 0 11 -4 25 -7 30 -10 14 -3 49 10 53 6 2 17 10 25 19 8 8 19 12 24 9 5 -4
11 0 14 6 3 10 9 10 27 0 15 -9 20 -10 15 -2 -4 7 4 4 18 -5 14 -9 28 -16 31
-16 4 1 7 1 9 0 11 -3 50 -9 90 -13 42 -4 47 -3 47 15 0 10 -4 27 -9 37 -10
17 -22 49 -27 67 -1 6 -5 17 -8 26 -4 8 2 25 14 39 11 13 20 19 20 15 0 -4 8
1 18 12 9 11 27 25 40 32 12 7 20 16 17 20 -16 28 139 -38 180 -76 12 -10 27
-19 34 -21 7 -1 19 -8 26 -15 7 -7 23 -19 35 -27 12 -8 35 -26 51 -40 44 -39
51 -44 92 -69 l38 -23 -7 43 c-4 24 -8 53 -9 65 -1 11 -4 24 -6 30 -3 5 -5 21
-4 37 0 15 -2 27 -5 27 -3 0 -6 49 -5 110 0 67 -4 110 -10 110 -7 0 -7 3 0 8
6 4 10 57 10 122 0 63 3 123 8 133 5 10 4 17 -3 17 -6 0 -8 5 -4 12 13 21 13
78 0 71 -7 -5 -7 -2 1 8 6 8 13 58 15 117 2 56 6 102 11 102 4 0 7 5 7 10 0
21 -24 8 -59 -32 -71 -82 -136 -140 -145 -131 -3 4 -6 1 -6 -6 0 -7 -4 -9 -10
-6 -6 3 -10 2 -10 -3 0 -14 -149 -84 -162 -76 -7 4 -8 3 -4 -4 8 -13 -13 -16
-30 -4 -13 9 -26 42 -16 41 29 -5 42 2 33 19 -37 73 -51 106 -51 118 0 8 -4
14 -10 14 -5 0 -10 5 -10 11 0 19 -84 135 -123 168 -11 9 -40 35 -65 58 -26
24 -52 43 -58 43 -7 0 -15 7 -18 16 -3 8 -10 12 -16 9 -5 -3 -10 -2 -10 2 0 5
-25 22 -55 38 -30 17 -55 33 -55 38 0 4 -5 7 -10 7 -6 0 -44 16 -85 35 -41 19
-86 37 -100 41 -14 3 -28 10 -30 15 -3 4 -12 6 -20 2 -8 -3 -15 0 -15 6 0 7
-6 11 -12 10 -7 -1 -20 0 -28 4 -29 11 -89 28 -116 33 -15 3 -31 7 -35 9 -4 3
-24 7 -45 11 -22 3 -43 9 -49 12 -11 7 -17 9 -62 17 -27 5 -37 1 -58 -21z"/>
</g>
</svg>
